<svg xmlns="http://www.w3.org/2000/svg" viewBox="0 0 640 360" font-family="Inter,'Helvetica Neue',Arial,sans-serif">
  <rect width="640" height="360" fill="#f5f3ee"/>
  <g fill="none" stroke="#d9d5ca" stroke-width="1">
    <path d="M0 60H640M0 300H640"/>
  </g>
  <text x="40" y="42" fill="#9a7a3f" font-size="10.5" letter-spacing="2.2" font-family="'JetBrains Mono',monospace">LOCALIZE, THEN ANALYZE</text>
  <text x="40" y="106" fill="#15171b" font-size="30" font-family="Newsreader,Georgia,serif">MedForge</text>

  <g stroke="#c9c4b6" fill="#ffffff">
    <rect x="40" y="152" width="120" height="88" rx="3"/>
  </g>
  <g fill="none" stroke="#b9b4a6" stroke-width="1">
    <path d="M64 226c14-42 30-58 46-58s28 12 40 34" />
    <rect x="96" y="176" width="30" height="26" rx="2" stroke="#1f3f6b" stroke-dasharray="3 3"/>
  </g>
  <text x="100" y="171" fill="#1f3f6b" font-size="9.5" font-family="'JetBrains Mono',monospace">LESION</text>

  <g stroke="#b9b4a6" stroke-width="1" fill="none">
    <path d="M160 196h56M368 196h56"/>
    <path d="M216 192l8 4-8 4M424 192l8 4-8 4" stroke="#8f8a7c"/>
  </g>
  <g fill="#ffffff" stroke="#c9c4b6">
    <rect x="224" y="176" width="144" height="40" rx="3"/>
    <rect x="432" y="176" width="168" height="40" rx="3"/>
  </g>
  <g font-size="12.5" fill="#41464f" text-anchor="middle">
    <text x="296" y="201">Evidence-grounded reasoning</text>
    <text x="516" y="201">Verdict with rationale</text>
  </g>

  <text x="320" y="288" fill="#767b85" font-size="11.5" text-anchor="middle" font-family="'JetBrains Mono',monospace" letter-spacing="0.6">forged medical images that remain clinically plausible</text>
  <text x="40" y="332" fill="#9ca1aa" font-size="11" font-family="'JetBrains Mono',monospace" letter-spacing="1.4">ACL 2026 MAIN  ·  19 LESION TYPES  ·  10 GENERATORS</text>
</svg>
