<svg xmlns="http://www.w3.org/2000/svg" viewBox="0 0 640 360" font-family="Inter,'Helvetica Neue',Arial,sans-serif">
  <rect width="640" height="360" fill="#f5f3ee"/>
  <g fill="none" stroke="#d9d5ca" stroke-width="1">
    <path d="M0 60H640M0 300H640"/>
  </g>
  <text x="40" y="42" fill="#9a7a3f" font-size="12" letter-spacing="2.2" font-family="'JetBrains Mono',monospace">COMPUTE FELLOWSHIP</text>
  <text x="40" y="106" fill="#15171b" font-size="33" font-family="Newsreader,Georgia,serif">MiniMax Cowork Team</text>

  <g stroke="#b9b4a6" stroke-width="1" fill="none">
    <path d="M156 178h48M156 196h48M156 214h48M400 196h48"/>
    <path d="M204 192l8 4-8 4M448 192l8 4-8 4" stroke="#8f8a7c"/>
  </g>
  <g fill="#ffffff" stroke="#c9c4b6">
    <rect x="40" y="176" width="116" height="40" rx="3"/>
    <rect x="212" y="160" width="188" height="72" rx="3"/>
    <rect x="456" y="176" width="144" height="40" rx="3"/>
  </g>
  <g font-size="14.5" fill="#41464f" text-anchor="middle">
    <text x="98" y="201">Compute grant</text>
    <text x="528" y="201">Verifiable workflow</text>
  </g>
  <g font-size="12.5" fill="#767b85" text-anchor="middle" font-family="'JetBrains Mono',monospace">
    <text x="306" y="184">LONG CONTEXT</text>
    <text x="306" y="202">MULTIMODAL</text>
    <text x="306" y="220">AGENTS</text>
  </g>

  <text x="320" y="288" fill="#767b85" font-size="13" text-anchor="middle" font-family="'JetBrains Mono',monospace" letter-spacing="0.6">medical foundation models with checkable decision paths</text>
  <text x="40" y="332" fill="#9ca1aa" font-size="12.5" font-family="'JetBrains Mono',monospace" letter-spacing="1.4">USD 4,500 COMPUTE GRANT</text>
</svg>
